<svg xmlns="http://www.w3.org/2000/svg" width="110" height="110" viewBox="0 0 110 110">
  <g id="Layer_2" data-name="Layer 2" transform="translate(0.454 0.454)">
    <g id="invisible_box" data-name="invisible box" transform="translate(-0.454 -0.454)">
      <rect id="Rectangle_7" data-name="Rectangle 7" width="110" height="110" fill="none"/>
    </g>
    <g id="icons_Q2" data-name="icons Q2" transform="translate(14.252 10.693)">
      <path id="Path_2" data-name="Path 2" d="M82.367,21.948,46.106,3.412,44.292,3l-1.813.412L6.218,21.948a.2.2,0,0,0-.2.206L44.292,41.926,82.569,22.154A.2.2,0,0,0,82.367,21.948ZM48.322,49.134v38.72L82.367,70.142a3.923,3.923,0,0,0,2.216-3.707V30.392ZM4,30.392V66.435a3.923,3.923,0,0,0,2.216,3.707L40.263,87.854V49.134Z" transform="translate(-3.998 -3)" fill="#6c7e9c"/>
    </g>
  </g>
</svg>
