<svg xmlns="http://www.w3.org/2000/svg" width="65.494" height="65.434" viewBox="0 0 75.494 75.434">
  <path id="Icon_simple-brand-dot-ai" data-name="Icon simple-brand-dot-ai" d="M75.356,35.406A37.717,37.717,0,0,0,37.939.009h-.447A37.71,37.71,0,0,0,.072,35.384C.025,36.161,0,36.938,0,37.734s.031,1.573.079,2.346A37.4,37.4,0,0,0,5.5,57.348a37.4,37.4,0,0,0,31.938,18.1H38A37.713,37.713,0,0,0,75.4,40.09c.044-.755.094-1.56.094-2.312s0-1.557-.05-2.309l-.085-.069ZM37.75,49.183V61.23c.3,7.36-1.793,8.587-4.309,8.7-.107,0-.208.009-.315.013A32.548,32.548,0,0,1,5.5,42.191a31.824,31.824,0,0,1,0-8.926A32.538,32.538,0,0,1,33.083,5.523l.362.031c2.516.135,4.608,1.352,4.309,8.694v12.04c-.031,4.948,2.815,9.662,5.841,11.449-3.026,1.761-5.875,5.9-5.844,11.43Z" transform="translate(0 -0.009)" fill="#3f72f6"/>
</svg>
