<svg xmlns="http://www.w3.org/2000/svg" width="45.45" height="45.45" viewBox="0 0 45.45 45.45">
  <path id="Icon_awesome-dribbble-square" data-name="Icon awesome-dribbble-square" d="M9.151,22.155a13.908,13.908,0,0,1,7.68-9.709,89.492,89.492,0,0,1,5.144,8.015A51.682,51.682,0,0,1,9.151,22.155Zm22.766-7.528a13.815,13.815,0,0,0-12.438-3.1,74.624,74.624,0,0,1,5.174,8.116C29.583,17.782,31.663,14.982,31.916,14.627Zm-17.7,21.3a13.839,13.839,0,0,0,13.929,1.826,57.238,57.238,0,0,0-2.962-10.51C19.59,29.155,15.664,32.969,14.213,35.932ZM24.237,24.955c-.345-.791-.73-1.572-1.126-2.354A50.768,50.768,0,0,1,8.867,24.569c0,.142-.01.284-.01.426a13.84,13.84,0,0,0,3.561,9.273A21.505,21.505,0,0,1,24.237,24.955Zm3.541,1.654a59.284,59.284,0,0,1,2.688,9.881A13.879,13.879,0,0,0,36.411,27.2a20.229,20.229,0,0,0-8.633-.588ZM25.718,21.7c.487.994.842,1.806,1.217,2.719a32.313,32.313,0,0,1,9.658.446,13.733,13.733,0,0,0-3.135-8.633A18.563,18.563,0,0,1,25.718,21.7ZM45.45,7.12V42.83a4.871,4.871,0,0,1-4.87,4.87H4.87A4.871,4.871,0,0,1,0,42.83V7.12A4.871,4.871,0,0,1,4.87,2.25H40.58A4.871,4.871,0,0,1,45.45,7.12ZM38.957,24.975A16.232,16.232,0,1,0,22.725,41.207,16.254,16.254,0,0,0,38.957,24.975Z" transform="translate(0 -2.25)" fill="#fff"/>
</svg>
