<svg xmlns="http://www.w3.org/2000/svg" width="45.446" height="45.446" viewBox="0 0 45.446 45.446">
  <path id="Icon_awesome-facebook-square" data-name="Icon awesome-facebook-square" d="M40.577,2.25H4.869A4.869,4.869,0,0,0,0,7.119V42.827A4.869,4.869,0,0,0,4.869,47.7H18.792V32.245H12.4V24.973h6.391V19.43c0-6.3,3.753-9.787,9.5-9.787a38.717,38.717,0,0,1,5.632.491v6.188H30.754c-3.125,0-4.1,1.94-4.1,3.929v4.722h6.977l-1.116,7.272H26.654V47.7H40.577a4.869,4.869,0,0,0,4.869-4.869V7.119A4.869,4.869,0,0,0,40.577,2.25Z" transform="translate(0 -2.25)" fill="#fff"/>
</svg>
