<svg xmlns="http://www.w3.org/2000/svg" width="60" height="60" viewBox="0 0 100 100">
  <g id="Layer_2" data-name="Layer 2" transform="translate(-0.335 -0.335)">
    <g id="invisible_box" data-name="invisible box" transform="translate(0.335 0.335)">
      <rect id="Rectangle_6" data-name="Rectangle 6" width="100" height="100" transform="translate(0)" fill="none"/>
    </g>
    <g id="icons_Q2" data-name="icons Q2" transform="translate(5.2 10.304)">
      <path id="Path_1" data-name="Path 1" d="M85.089,11.2A24.925,24.925,0,0,0,67.651,4c-8,0-16.413,6.2-20.516,13.009C43.032,10.2,34.62,4,26.619,4A24.925,24.925,0,0,0,9.181,11.2,23.523,23.523,0,0,0,2,28.217,22.223,22.223,0,0,0,5.693,40.025H26.414l6.565-11.008a2.29,2.29,0,0,1,3.693,0L47.135,46.229l3.9-6.2H67.445a4.285,4.285,0,0,1,4.308,3.4,3.936,3.936,0,0,1-.96,3.227A4.149,4.149,0,0,1,67.65,48.03h-12.1L48.981,59.038a2.29,2.29,0,0,1-3.693,0L34.825,41.826l-3.9,6.2H11.848a.405.405,0,0,0,.41.4c4.1,4.6,27.286,28.62,33.441,35.024a2.089,2.089,0,0,0,2.872,0c6.155-6.4,29.337-30.421,33.441-35.024S92.269,36.422,92.269,28.217A23.523,23.523,0,0,0,85.089,11.2Z" transform="translate(-2 -4)" fill="#6c7e9c"/>
    </g>
  </g>
</svg>
