<svg xmlns="http://www.w3.org/2000/svg" width="45.45" height="45.45" viewBox="0 0 45.45 45.45">
  <path id="Icon_awesome-linkedin" data-name="Icon awesome-linkedin" d="M42.2,2.25H3.236A3.26,3.26,0,0,0,0,5.527v38.9A3.26,3.26,0,0,0,3.236,47.7H42.2a3.269,3.269,0,0,0,3.246-3.277V5.527A3.269,3.269,0,0,0,42.2,2.25ZM13.736,41.207H7V19.517h6.746v21.69ZM10.368,16.555a3.906,3.906,0,1,1,3.906-3.906A3.908,3.908,0,0,1,10.368,16.555ZM38.988,41.207H32.251V30.656c0-2.516-.051-5.752-3.5-5.752-3.51,0-4.048,2.739-4.048,5.57V41.207H17.967V19.517h6.462v2.962h.091a7.1,7.1,0,0,1,6.381-3.5c6.817,0,8.086,4.494,8.086,10.338Z" transform="translate(0 -2.25)" fill="#fff"/>
</svg>
