<svg xmlns="http://www.w3.org/2000/svg" width="284.356" height="78.06" viewBox="0 0 284.356 78.06">
  <g id="Group_3" data-name="Group 3" transform="translate(-144.981 -38.405)">
    <g id="Group_12" data-name="Group 12" transform="translate(144.981 58.916)">
      <g id="Group_11" data-name="Group 11" transform="translate(0 0)">
        <path id="Path_35" data-name="Path 35" d="M0,29.49H21.264v6.386h-7.09v50.33H7.09V35.876H0Z" transform="translate(0 -28.865)" fill="#fff"/>
        <path id="Path_36" data-name="Path 36" d="M37.51,29.49H49c7.3,0,9.784,4.468,9.784,13.046,0,7.73-.92,12.126-3.118,14.253v.424c1.839.639,2.407,3.965,3.118,12.263l1.437,16.731H53.113l-.927-16.731c-.5-8.434-1.774-10.208-3.894-10.208H44.6V86.206H37.51ZM49,53.6c2.486,0,3.19-2.486,3.19-11.063,0-5.6-1.063-7.371-3.19-7.371H44.6V53.6Z" transform="translate(-10.564 -28.865)" fill="#fff"/>
        <path id="Path_37" data-name="Path 37" d="M77,29.49h7.09V86.242H77Z" transform="translate(-21.685 -28.865)" fill="#fff"/>
        <path id="Path_38" data-name="Path 38" d="M94.78,29.49h6.386l9.281,34.741-.065-.718V29.49h7.083V86.242h-6.379L101.806,55l.065.718V86.2H94.78Z" transform="translate(-26.692 -28.865)" fill="#fff"/>
        <path id="Path_39" data-name="Path 39" d="M134.28,29.49h7.083V51.968l7.083-22.478h7.09L147.01,56.436l8.506,29.777h-7.069l-7.083-24.82V86.206H134.28Z" transform="translate(-37.816 -28.865)" fill="#fff"/>
        <path id="Path_40" data-name="Path 40" d="M171.79,56.191c0-19.777,0-27.571,10.632-27.571s10.639,7.787,10.639,27.571V85.968h-7.09V69.654h-7.09V85.961h-7.09Zm14.181,7.8v-7.8c0-18.426,0-21.9-3.549-21.9s-3.542,3.477-3.542,21.9v7.794Z" transform="translate(-48.38 -28.62)" fill="#fff"/>
      </g>
      <g id="Group_10" data-name="Group 10" transform="translate(207.051 0.309)">
        <path id="Path_41" data-name="Path 41" d="M288.22,29.05h14.928v5.668h-7.837V55.989h6.4v5.675h-6.379v24.1h-7.09Z" transform="translate(-288.22 -29.05)" fill="#fff"/>
        <path id="Path_42" data-name="Path 42" d="M315.87,29.05h7.09V85.8h-7.09Z" transform="translate(-296.007 -29.05)" fill="#fff"/>
        <path id="Path_43" data-name="Path 43" d="M340.088,29.05l4.253,41.824h.718l4.253-41.824h7.442L348.96,85.8h-8.5l-7.8-56.752Z" transform="translate(-300.735 -29.05)" fill="#fff"/>
        <path id="Path_44" data-name="Path 44" d="M373.14,29.05h16.3v5.668h-9.217V53.152h7.8v5.675h-7.8V78.676h9.217v7.09h-16.3Z" transform="translate(-312.136 -29.05)" fill="#fff"/>
      </g>
    </g>
    <g id="Group_36" data-name="Group 36" transform="translate(297.869 38.405)">
      <path id="Path_46" data-name="Path 46" d="M238.533,41.487h-.251c-1.8-.259-2.083-.776-2.536-1.559a4.475,4.475,0,0,0-1.638-1.832l-.589-.345c-.955-.546-1.552-.884-1.868-1.832a5.348,5.348,0,0,1,.546-.251,6.039,6.039,0,0,1,.97-.3q.244-.043.5-.065h.323a2.687,2.687,0,0,1,.8.553c.151.136.309.273.481.4a2.47,2.47,0,0,0,.625.4,1.358,1.358,0,0,0,.79,0,3.591,3.591,0,0,0,.6-.23,1.323,1.323,0,0,1,.374-.122h0l.036.036a.316.316,0,0,1,0,.2c0,.172-.05.374-.065.582a.769.769,0,0,0,.144.589.676.676,0,0,1,0-.553c.065-.18.165-.345.237-.553a.824.824,0,0,0,.043-.388.573.573,0,0,0-.1-.23h0a.211.211,0,0,0-.057-.057.461.461,0,0,0-.115-.079.8.8,0,0,0-.453-.043l-.323.079a1.25,1.25,0,0,1-.905.072.2.2,0,0,1-.065-.043l-.079-.072-.158-.2c-.115-.144-.223-.3-.33-.46l-.215-.309.079-.043a5.4,5.4,0,0,1,.927-.431.97.97,0,0,1,.855,0,1.186,1.186,0,0,1,.345.359c.05.072.093.151.151.223a.41.41,0,0,0,.115.108.136.136,0,0,0,.136-.05c-.093.065-.151,0-.172-.093s-.05-.172-.079-.266a1.479,1.479,0,0,0-.266-.532,1.092,1.092,0,0,0-.568-.352,2.357,2.357,0,0,0-.625-.057,6.867,6.867,0,0,0-1.164.136c-.23.043-.453.1-.682.158a.908.908,0,0,0-.208-.086l-.158-.05-.208-.05a5.7,5.7,0,0,0-.718-.1,7.184,7.184,0,0,0-1.365,0l-.4.057a7.674,7.674,0,0,0-1.214-4.066,3.5,3.5,0,0,0,.388,0,4.562,4.562,0,0,0,.718-.1h0l.072.036-.058-.036h0a6.6,6.6,0,0,0,2.3.977,2.759,2.759,0,0,0,1.365,0,1.437,1.437,0,0,0,.639-.4,2.944,2.944,0,0,0,.381-.539c.208-.381.28-.8.445-1.006a.841.841,0,0,1,.374-.237.417.417,0,0,1,.381,0c.129.072.244.237.46.359a.453.453,0,0,0,.374.036.768.768,0,0,0,.287-.144,2.017,2.017,0,0,0,.51-1.056,1.926,1.926,0,0,1-.618.905.618.618,0,0,1-.237.079.273.273,0,0,1-.18-.057c-.115-.079-.208-.259-.388-.409a.833.833,0,0,0-.718-.158,1.257,1.257,0,0,0-.618.323,1.982,1.982,0,0,0-.359.56,2.884,2.884,0,0,1-.259.467,1.972,1.972,0,0,1-.316.366.761.761,0,0,1-.359.144,2,2,0,0,1-.912-.144,4.841,4.841,0,0,1-1.322-.718,7.621,7.621,0,0,0,.488-.639c.108-.165.216-.316.331-.46l.158-.2.079-.072.065-.05a1.25,1.25,0,0,1,.905.072,3.045,3.045,0,0,0,.323.079.718.718,0,0,0,.453-.043.316.316,0,0,0,.115-.072.429.429,0,0,0,.057-.057h0a.574.574,0,0,0,.1-.23.818.818,0,0,0-.043-.388c-.072-.216-.172-.381-.237-.56a.675.675,0,0,1,0-.553.783.783,0,0,0-.144.6c0,.2.065.409.065.582a.315.315,0,0,1,0,.2h-.036a1.107,1.107,0,0,1-.374-.122,4.458,4.458,0,0,0-.6-.223,1.329,1.329,0,0,0-.783,0,2.285,2.285,0,0,0-.625.4c-.172.129-.33.266-.481.4a2.443,2.443,0,0,1-.8.553h-.316a3.923,3.923,0,0,1-.5-.072,5.365,5.365,0,0,1-.97-.295,5.976,5.976,0,0,1-.611-.295,3.175,3.175,0,0,1,.718-1.437,9.947,9.947,0,0,0,.8-1.386,2.874,2.874,0,0,0,.194-2.277,3.707,3.707,0,0,1-.158-.869c.086.05.172.1.266.144a6.531,6.531,0,0,0,.618.251l.352.108h.172c.144.223.287.431.445.639a6.332,6.332,0,0,0,.769.884,2.315,2.315,0,0,0,.5.381,1.049,1.049,0,0,0,.654.115,1.387,1.387,0,0,0,.56-.216l.23-.144c.072-.043.172-.065.187.05a.115.115,0,0,0-.065-.129.359.359,0,0,0-.151,0l-.266.065a1.192,1.192,0,0,1-.5.036c-.295-.05-.46-.295-.625-.582a6.879,6.879,0,0,1-.4-.941c-.05-.151-.093-.3-.144-.46a4.933,4.933,0,0,0,.453-.309,4.1,4.1,0,0,1,.869-.532h.173a.294.294,0,0,1,.136,0,.768.768,0,0,1,.3.259,2.878,2.878,0,0,0,.431.5.525.525,0,0,0,.51.057l.072-.036.086-.057a1.17,1.17,0,0,0,.137-.122,2.105,2.105,0,0,0,.316-.532,1.329,1.329,0,0,1,.345-.431c-.381.1-.647.524-.905.661l-.1.043h-.108a3.4,3.4,0,0,1-.251-.417,1.436,1.436,0,0,0-.489-.539,1.092,1.092,0,0,0-.417-.136h-.4a4.906,4.906,0,0,0-1.214.374,1.559,1.559,0,0,1-.8.208h0l-.18-.122c-.129-.093-.259-.187-.381-.295a5.745,5.745,0,0,1-.668-.718l-.165-.216c.611-1.121,2.227-2.493,4.555-3.815a10.924,10.924,0,0,1,2.522-.905h.223c1.437,0,1.645.84,1.674,1.221V40.826A1.387,1.387,0,0,1,238.533,41.487Z" transform="translate(-218.626 -4.18)" fill="#ec1c24"/>
      <path id="Path_47" data-name="Path 47" d="M253.142,37.917l-.208.129a4.447,4.447,0,0,0-1.645,1.832c-.445.783-.718,1.3-2.536,1.559H248.5c-.912,0-1.178-.4-1.272-.654V15.791c0-.381.251-1.221,1.674-1.221h.2a10.906,10.906,0,0,1,2.543.905c2.874,1.638,4.669,3.34,4.806,4.562a1.2,1.2,0,0,0,.036.366h-.129a6.588,6.588,0,0,0-1.437,0,4.884,4.884,0,0,0-.718.115h-.194l-.115.043-.136.05c-.244-.065-.5-.122-.718-.165a5.884,5.884,0,0,0-1.243-.129,2.58,2.58,0,0,0-.331.036l-.172.036h-.108a.388.388,0,0,1-.359-.122,1.9,1.9,0,0,1-.295-.453,1.329,1.329,0,0,0-.316-.5c.2.33.137.718.359,1.128a.783.783,0,0,0,.611.409h.294l.244.057a5.655,5.655,0,0,1,.984.438.85.85,0,0,1,.136.079c-.108.151-.2.295-.3.431s-.223.316-.338.46a.546.546,0,0,1-.309.23,2.356,2.356,0,0,1-1.056-.172.941.941,0,0,0-.431,0,.5.5,0,0,0-.244.144.789.789,0,0,0-.1.129c-.129.187-.237.366-.338.546-.2.366-.374.718-.553,1.106.259-.316.524-.632.8-.927a4.523,4.523,0,0,1,.424-.409l.1-.086h0a.719.719,0,0,1,.172.043,2.816,2.816,0,0,0,1.307.345,1.437,1.437,0,0,0,.718-.345,5.761,5.761,0,0,0,.51-.409,3.633,3.633,0,0,1,.862-.632.5.5,0,0,1,.151-.036h.151a4.215,4.215,0,0,1,.517.057,5.746,5.746,0,0,1,1.006.295l.388.18a2.8,2.8,0,0,0,.23,2.155,5.561,5.561,0,0,1,.424,2.981h0a6.652,6.652,0,0,0-1.365,0,4.31,4.31,0,0,0-.683.1h-.014a6.466,6.466,0,0,0-2.3-.977,2.816,2.816,0,0,0-1.358,0,1.509,1.509,0,0,0-.647.409,3.335,3.335,0,0,0-.381.539c-.208.381-.28.8-.445,1.006a.841.841,0,0,1-.374.237.4.4,0,0,1-.374,0c-.137-.072-.251-.237-.46-.359a.488.488,0,0,0-.374-.043.791.791,0,0,0-.287.151,1.983,1.983,0,0,0-.517,1.056,1.925,1.925,0,0,1,.618-.905.66.66,0,0,1,.237-.079.266.266,0,0,1,.18.05c.115.086.208.266.388.417a.833.833,0,0,0,.718.158,1.228,1.228,0,0,0,.618-.323,1.982,1.982,0,0,0,.359-.56,4.679,4.679,0,0,1,.259-.467,2,2,0,0,1,.323-.366.719.719,0,0,1,.352-.144,2.047,2.047,0,0,1,.92.144,4.914,4.914,0,0,1,1.315.718,8.022,8.022,0,0,0-.489.639c-.108.165-.215.316-.323.46l-.165.2-.079.072-.065.05a1.25,1.25,0,0,1-.905-.072,3.048,3.048,0,0,0-.323-.079.718.718,0,0,0-.453.043.388.388,0,0,0-.115.072.423.423,0,0,0-.057.057h0a.553.553,0,0,0-.093.23.719.719,0,0,0,0,.388c.072.216.172.381.237.56a.675.675,0,0,1,0,.553.783.783,0,0,0,.144-.6c0-.2-.065-.409-.065-.582a.316.316,0,0,1,0-.2h.036a.949.949,0,0,1,.374.122,4.457,4.457,0,0,0,.6.223,1.329,1.329,0,0,0,.783,0,2.285,2.285,0,0,0,.625-.4c.172-.129.33-.266.481-.4a2.636,2.636,0,0,1,.8-.553.136.136,0,0,1,.108,0h.216a3.923,3.923,0,0,1,.5.072,5.024,5.024,0,0,1,.776.223,3.065,3.065,0,0,0-.611,2.263,11.888,11.888,0,0,1,.036,2.155,6.318,6.318,0,0,1-.352,1.925q-.223-.244-.474-.474a5.788,5.788,0,0,0-.517-.424l-.3-.2-.115-.065a.719.719,0,0,0-.136-.057,1.438,1.438,0,0,0-.251-.079,1.911,1.911,0,0,0-.826.036c-.223.057-.409.122-.589.187a3.779,3.779,0,0,1-.984.259h-.18a.323.323,0,0,1-.122-.057.719.719,0,0,1-.223-.33,2.492,2.492,0,0,0-.266-.6.524.524,0,0,0-.474-.2l-.172.043a.589.589,0,0,0-.165.079,2.156,2.156,0,0,0-.46.409,1.222,1.222,0,0,1-.46.316c.4,0,.776-.316,1.063-.374h.216a3.518,3.518,0,0,1,.115.474,1.436,1.436,0,0,0,.316.654,1.091,1.091,0,0,0,.352.251,1,1,0,0,0,.208.065l.18.036a4.7,4.7,0,0,0,1.272,0,2.282,2.282,0,0,1,.826,0h0a2.1,2.1,0,0,1,.137.165c.1.129.194.259.28.4a5.617,5.617,0,0,1,.438.884.477.477,0,0,1,0,.05A1.54,1.54,0,0,1,253.142,37.917Z" transform="translate(-223.76 -4.152)" fill="#fff100"/>
      <path id="Path_48" data-name="Path 48" d="M234.071,78.129a4.914,4.914,0,0,1-2.586-.718c-2.874-1.753-3.067-6.013-3.075-6.465a1.322,1.322,0,0,1,.553-1.1,1.336,1.336,0,0,1,1.228-.158,43.405,43.405,0,0,0,7.306,2.155c-.955-.345-2.1-.718-3-.977-4.6-1.437-9.339-2.874-9.152-6.135a1.623,1.623,0,0,1,.718-1.243c1.092-.718,2.773-.266,7.708,1.343a60.533,60.533,0,0,0,6.142,1.8c-1.494-.632-3.692-1.322-5.345-1.839-6.1-1.925-9.547-3.132-9.454-5.589a1.9,1.9,0,0,1,.819-1.523c1.487-1.042,4.418-.18,9.892,1.58a56.59,56.59,0,0,0,6.724,1.868,36.083,36.083,0,0,0-5.388-1.832c-3.254-.941-6.954-2-9.418-3.7-3.24-2.227-3.384-4.655-3.542-7.471a20.459,20.459,0,0,0-2.6-9.633c-6.113-7.636-8.348-15.847-6.3-23.117,1.818-6.465,6.975-11.652,14.145-14.231C235.573-1.015,247.929-.692,255,9.473c6.817,9.993,5.28,19.734-4.713,29.791,0,0-3.269,3.542-5.079,12.27a5.977,5.977,0,0,1-2.083,3.405,4.583,4.583,0,0,1-6.365-.409l-.144-.165a4.131,4.131,0,0,1-1.049-2.055V52.2a78.368,78.368,0,0,1-.115-11.494c.057-1.379.1-2.579.1-3.427a1.322,1.322,0,0,1,2.637,0c0,.9-.05,2.155-.108,3.527a77.344,77.344,0,0,0,.086,10.977,1.6,1.6,0,0,0,.453.848l.137.158a1.986,1.986,0,0,0,2.766.072l.05-.036A3.412,3.412,0,0,0,242.656,51c1.99-9.569,5.625-13.427,5.747-13.585,9.095-9.159,10.5-17.564,4.418-26.465-6.214-8.98-17.112-9.281-22.485-7.335-6.35,2.284-10.912,6.825-12.5,12.464-1.818,6.465.28,13.872,5.9,20.833a.913.913,0,0,1,.129.194,23.061,23.061,0,0,1,2.967,10.84c.158,2.636.23,3.958,2.414,5.453s5.589,2.457,8.621,3.333c3.98,1.149,6.853,1.976,7.7,3.743a2.413,2.413,0,0,1,.036,2.019c-.984,2.328-4.813,1.1-10.6-.761-1.832-.582-4.31-1.372-5.97-1.731a57.011,57.011,0,0,0,6.307,2.249c5.431,1.71,9.339,2.945,8.707,5.539a2.025,2.025,0,0,1-1,1.279c-1.674.92-4.935-.065-10.108-1.753-1.113-.366-2.435-.8-3.542-1.113a42.994,42.994,0,0,0,5.84,2.155c4.03,1.236,6.94,2.155,6.623,4.31a2.055,2.055,0,0,1-1.02,1.5c-1.782,1.049-6.322-.172-9.49-1.243a3.908,3.908,0,0,0,1.473,2.284c.912.546,2.256.381,4-.5A1.317,1.317,0,0,1,238,77.065,8.98,8.98,0,0,1,234.071,78.129Z" transform="translate(-214.56 -0.068)" fill="#fff"/>
    </g>
  </g>
</svg>
