<svg xmlns="http://www.w3.org/2000/svg" width="77.206" height="66.869" viewBox="0 0 87.206 76.869">
  <g id="Group_41" data-name="Group 41" transform="translate(-993.229 -2042)">
    <path id="Icon_awesome-mobile-alt" data-name="Icon awesome-mobile-alt" d="M40.836,0H7.206A7.208,7.208,0,0,0,0,7.206V69.662a7.208,7.208,0,0,0,7.206,7.206h33.63a7.208,7.208,0,0,0,7.206-7.206V7.206A7.208,7.208,0,0,0,40.836,0ZM24.021,72.064a4.8,4.8,0,1,1,4.8-4.8A4.8,4.8,0,0,1,24.021,72.064ZM40.836,55.85a1.807,1.807,0,0,1-1.8,1.8H9.008a1.807,1.807,0,0,1-1.8-1.8V9.008a1.807,1.807,0,0,1,1.8-1.8H39.035a1.807,1.807,0,0,1,1.8,1.8Z" transform="translate(993.229 2042)" fill="#3f72f6"/>
    <path id="Icon_awesome-mobile-alt-2" data-name="Icon awesome-mobile-alt" d="M27.9,0H4.924A4.925,4.925,0,0,0,0,4.924V47.6a4.925,4.925,0,0,0,4.924,4.924H27.9A4.925,4.925,0,0,0,32.826,47.6V4.924A4.925,4.925,0,0,0,27.9,0ZM16.413,49.238A3.283,3.283,0,1,1,19.7,45.956,3.279,3.279,0,0,1,16.413,49.238ZM27.9,38.16a1.235,1.235,0,0,1-1.231,1.231H6.155A1.235,1.235,0,0,1,4.924,38.16v-32A1.235,1.235,0,0,1,6.155,4.924H26.671A1.235,1.235,0,0,1,27.9,6.155Z" transform="translate(1047.609 2066.348)" fill="#3f72f6"/>
  </g>
</svg>
