<svg xmlns="http://www.w3.org/2000/svg" width="69.382" height="69.381" viewBox="0 0 79.382 79.381">
  <g id="paint-palette" transform="translate(0 -0.001)">
    <g id="Group_42" data-name="Group 42" transform="translate(0 0.001)">
      <path id="Path_49" data-name="Path 49" d="M79.377,39.285C79.169,18.431,62.059.822,41.235.032A39.688,39.688,0,0,0,0,39.692,39.457,39.457,0,0,0,37.623,79.329a1.667,1.667,0,0,0,.413.053c.172,0,.344-.007.516-.017.03,0,.056,0,.086,0a1.451,1.451,0,0,0,.476-.06,8.276,8.276,0,0,0,7.191-8.2,8.188,8.188,0,0,0-1.565-4.8l.017-.01c-.794-1.207-1.521-2.183-2.166-3.053-1.677-2.256-2.6-3.5-2.861-6.479a3.668,3.668,0,0,1-.04-.542A3.311,3.311,0,0,1,43,52.922a35.331,35.331,0,0,1,7.938,1.412c6.678,1.67,14.99,3.751,22.782-1.713C79.466,48.583,79.407,42.305,79.377,39.285ZM18.191,56.23a8.269,8.269,0,1,1,8.269-8.269A8.276,8.276,0,0,1,18.191,56.23ZM21.5,33.077a8.269,8.269,0,1,1,8.269-8.269A8.278,8.278,0,0,1,21.5,33.077Zm23.153-6.615a8.269,8.269,0,1,1,8.269-8.269A8.278,8.278,0,0,1,44.651,26.462ZM61.189,43a8.269,8.269,0,1,1,8.269-8.269A8.278,8.278,0,0,1,61.189,43Z" transform="translate(0 -0.001)" fill="#3f72f6"/>
    </g>
  </g>
</svg>
