<svg id="Layer_2" data-name="Layer 2" xmlns="http://www.w3.org/2000/svg" width="80" height="80" viewBox="0 0 90 90">
  <g id="invisible_box" data-name="invisible box">
    <rect id="Rectangle_12" data-name="Rectangle 12" width="90" height="90" fill="none"/>
  </g>
  <g id="icons_Q2" data-name="icons Q2" transform="translate(2.03 2.1)">
    <path id="Path_5" data-name="Path 5" d="M48.9,2.1V29.687a17.009,17.009,0,0,1,7.235,4.3L80.183,20.1A43.4,43.4,0,0,0,48.9,2.1Zm35.2,24.848L60.043,40.84a14.683,14.683,0,0,1,0,8.218l24.05,13.891A43.461,43.461,0,0,0,84.093,26.948ZM44.987,60.6a15.653,15.653,0,0,1-3.911-30.913V2.1A43.039,43.039,0,1,0,80.183,69.8L56.133,55.905a15.637,15.637,0,0,1-11.145,4.7Z" transform="translate(-2.03 -2.1)" fill="#6c7e9c"/>
  </g>
</svg>
