<svg xmlns="http://www.w3.org/2000/svg" viewBox="0 0 94.51 72.87"><defs><style>.cls-1{isolation:isolate;}.cls-2{fill:#3f72f6;}</style></defs><g id="Layer_2" data-name="Layer 2"><g id="Layer_1-2" data-name="Layer 1"><g class="cls-1"><path class="cls-2" d="M37.23,3.7C19.8,15.05,12.67,26.14,12.67,35.91c0,6.33,4,9,7.13,9.5l11.09-10.3c6.07,2.12,14,8.45,14,18.48,0,11.62-9.5,19.28-21.12,19.28C9.5,72.87,0,63.63,0,47.52,0,27.46,15.31,12.14,34.85,0Zm49.63,0C69.43,15.05,62.31,26.14,62.31,35.91c0,6.33,4,9,7.12,9.5l11.09-10.3c6.07,2.12,14,8.45,14,18.48,0,11.62-9.5,19.28-21.12,19.28-14.25,0-23.76-9.24-23.76-25.35C49.63,27.46,65,12.14,84.48,0Z"/></g></g></g></svg>